<mxfile host="app.diagrams.net" modified="2023-03-08T21:22:03.986Z" agent="5.0 (Windows NT 10.0; Win64; x64) AppleWebKit/537.36 (KHTML, like Gecko) Chrome/110.0.0.0 Safari/537.36" etag="kug3ma59kZCfDpyEkk8n" version="21.0.2" type="github">
  <diagram name="PÃ¡gina-1" id="-zt2QIk4jjoxiTvjp5pI">
    <mxGraphModel dx="1318" dy="465" grid="1" gridSize="10" guides="1" tooltips="1" connect="1" arrows="1" fold="1" page="1" pageScale="1" pageWidth="827" pageHeight="1169" math="0" shadow="0">
      <root>
        <mxCell id="0" />
        <mxCell id="1" parent="0" />
        <mxCell id="wXMD94sGe2Zew7ENMtz1-2" value="" style="html=1;verticalLabelPosition=bottom;labelBackgroundColor=#ffffff;verticalAlign=top;shadow=0;dashed=0;strokeWidth=1;shape=mxgraph.ios7.misc.ipad10inch;strokeColor=#c0c0c0;" vertex="1" parent="1">
          <mxGeometry x="50" y="112" width="380" height="473" as="geometry" />
        </mxCell>
        <mxCell id="wXMD94sGe2Zew7ENMtz1-1" value="" style="shape=image;html=1;verticalAlign=top;verticalLabelPosition=bottom;labelBackgroundColor=#ffffff;imageAspect=0;aspect=fixed;image=https://cdn4.iconfinder.com/data/icons/evil-icons-user-interface/64/finger-128.png" vertex="1" parent="1">
          <mxGeometry x="176" y="440" width="128" height="128" as="geometry" />
        </mxCell>
        <mxCell id="wXMD94sGe2Zew7ENMtz1-7" value="" style="whiteSpace=wrap;html=1;aspect=fixed;" vertex="1" parent="1">
          <mxGeometry x="120" y="190" width="80" height="80" as="geometry" />
        </mxCell>
        <mxCell id="wXMD94sGe2Zew7ENMtz1-11" value="Tu rol&lt;br&gt;EXFARC&lt;br&gt;$560.000" style="ellipse;whiteSpace=wrap;html=1;aspect=fixed;" vertex="1" parent="1">
          <mxGeometry x="80" y="150" width="80" height="80" as="geometry" />
        </mxCell>
        <mxCell id="wXMD94sGe2Zew7ENMtz1-15" value="" style="whiteSpace=wrap;html=1;aspect=fixed;" vertex="1" parent="1">
          <mxGeometry x="290" y="190" width="80" height="80" as="geometry" />
        </mxCell>
        <mxCell id="wXMD94sGe2Zew7ENMtz1-5" value="" style="endArrow=none;dashed=1;html=1;dashPattern=1 3;strokeWidth=2;rounded=0;" edge="1" parent="1" target="wXMD94sGe2Zew7ENMtz1-15">
          <mxGeometry width="50" height="50" relative="1" as="geometry">
            <mxPoint x="230" y="470" as="sourcePoint" />
            <mxPoint x="320" y="290" as="targetPoint" />
            <Array as="points">
              <mxPoint x="200" y="440" />
              <mxPoint x="190" y="390" />
              <mxPoint x="200" y="360" />
              <mxPoint x="230" y="310" />
              <mxPoint x="290" y="270" />
            </Array>
          </mxGeometry>
        </mxCell>
        <mxCell id="wXMD94sGe2Zew7ENMtz1-12" value="&lt;br&gt;&lt;span style=&quot;color: rgb(0, 0, 0); font-family: Helvetica; font-size: 12px; font-style: normal; font-variant-ligatures: normal; font-variant-caps: normal; font-weight: 400; letter-spacing: normal; orphans: 2; text-align: center; text-indent: 0px; text-transform: none; widows: 2; word-spacing: 0px; -webkit-text-stroke-width: 0px; background-color: rgb(251, 251, 251); text-decoration-thickness: initial; text-decoration-style: initial; text-decoration-color: initial; float: none; display: inline !important;&quot;&gt;Tu rol&lt;/span&gt;&lt;br style=&quot;border-color: var(--border-color); color: rgb(0, 0, 0); font-family: Helvetica; font-size: 12px; font-style: normal; font-variant-ligatures: normal; font-variant-caps: normal; font-weight: 400; letter-spacing: normal; orphans: 2; text-align: center; text-indent: 0px; text-transform: none; widows: 2; word-spacing: 0px; -webkit-text-stroke-width: 0px; background-color: rgb(251, 251, 251); text-decoration-thickness: initial; text-decoration-style: initial; text-decoration-color: initial;&quot;&gt;&lt;span style=&quot;color: rgb(0, 0, 0); font-family: Helvetica; font-size: 12px; font-style: normal; font-variant-ligatures: normal; font-variant-caps: normal; font-weight: 400; letter-spacing: normal; orphans: 2; text-align: center; text-indent: 0px; text-transform: none; widows: 2; word-spacing: 0px; -webkit-text-stroke-width: 0px; background-color: rgb(251, 251, 251); text-decoration-thickness: initial; text-decoration-style: initial; text-decoration-color: initial; float: none; display: inline !important;&quot;&gt;STUDENT&lt;br&gt;$560.000&lt;/span&gt;" style="ellipse;whiteSpace=wrap;html=1;aspect=fixed;" vertex="1" parent="1">
          <mxGeometry x="166" y="150" width="80" height="80" as="geometry" />
        </mxCell>
        <mxCell id="wXMD94sGe2Zew7ENMtz1-13" value="Tu rol&lt;br style=&quot;border-color: var(--border-color);&quot;&gt;EXFARC&lt;br&gt;$700.000" style="ellipse;whiteSpace=wrap;html=1;aspect=fixed;" vertex="1" parent="1">
          <mxGeometry x="250" y="150" width="90" height="90" as="geometry" />
        </mxCell>
        <mxCell id="wXMD94sGe2Zew7ENMtz1-14" value="Tu rol&lt;br style=&quot;border-color: var(--border-color);&quot;&gt;STUDENT&lt;br style=&quot;border-color: var(--border-color);&quot;&gt;$380.000" style="ellipse;whiteSpace=wrap;html=1;aspect=fixed;" vertex="1" parent="1">
          <mxGeometry x="343.5" y="160" width="70" height="70" as="geometry" />
        </mxCell>
      </root>
    </mxGraphModel>
  </diagram>
</mxfile>
